<svg width="164" height="25" viewBox="0 0 164 25" fill="none" xmlns="http://www.w3.org/2000/svg">
<path d="M15.5938 1.46875C15.5312 2.44792 15.474 3.41667 15.4219 4.375C15.3698 5.33333 15.3021 6.30208 15.2188 7.28125L8.59375 7.625L8.4375 9.59375H13.0938L12.75 14.4375L8.0625 14.5938L7.90625 16.875H11.7812H14.5312C14.4688 18.0208 14.401 19.1615 14.3281 20.2969C14.2656 21.4219 14.2083 22.5521 14.1562 23.6875L0.6875 24L1.1875 1.46875H15.5938ZM35.3125 2.09375L29.5938 23.2188L21.8438 23.6562L14.8125 3.25L22.2188 2.5625L25.2188 14.4375L28.125 1.625L35.3125 2.09375ZM52.4219 11.375C52.4219 12.2812 52.3594 13.1875 52.2344 14.0938C50.4531 14.2083 48.6823 14.3958 46.9219 14.6562C45.1615 14.9062 43.401 15.1562 41.6406 15.4062C41.9115 16.1562 42.3333 16.7552 42.9062 17.2031C43.4896 17.651 44.1823 17.875 44.9844 17.875C45.401 17.875 45.8542 17.7969 46.3438 17.6406C46.8438 17.4844 47.3385 17.2917 47.8281 17.0625C48.3177 16.8229 48.7865 16.5677 49.2344 16.2969C49.6823 16.026 50.0677 15.7812 50.3906 15.5625L49.6406 22.6562C49.2344 22.9688 48.7917 23.2344 48.3125 23.4531C47.8438 23.6719 47.3542 23.849 46.8438 23.9844C46.3333 24.1198 45.8177 24.2188 45.2969 24.2812C44.776 24.3438 44.2656 24.375 43.7656 24.375C42.7344 24.375 41.7917 24.2344 40.9375 23.9531C40.0833 23.6719 39.3073 23.2812 38.6094 22.7812C37.9219 22.2708 37.3177 21.6719 36.7969 20.9844C36.276 20.2969 35.8438 19.5469 35.5 18.7344C35.1562 17.9219 34.8958 17.0625 34.7188 16.1562C34.5417 15.25 34.4531 14.3333 34.4531 13.4062C34.4531 12.4375 34.5417 11.4688 34.7188 10.5C34.8958 9.53125 35.1615 8.59896 35.5156 7.70312C35.8802 6.80729 36.3333 5.97917 36.875 5.21875C37.4271 4.44792 38.0677 3.77604 38.7969 3.20312C39.526 2.63021 40.349 2.18229 41.2656 1.85938C42.1927 1.53646 43.2135 1.375 44.3281 1.375C45.2552 1.375 46.099 1.50521 46.8594 1.76562C47.6302 2.01562 48.3125 2.36979 48.9062 2.82812C49.5104 3.27604 50.0312 3.8125 50.4688 4.4375C50.9167 5.0625 51.2812 5.75 51.5625 6.5C51.8542 7.23958 52.0677 8.02604 52.2031 8.85938C52.349 9.68229 52.4219 10.5208 52.4219 11.375ZM46.1719 10.5625C46.1719 10.2708 46.1406 9.97396 46.0781 9.67188C46.0156 9.35938 45.9115 9.07812 45.7656 8.82812C45.6302 8.57812 45.4479 8.375 45.2188 8.21875C44.9896 8.05208 44.7031 7.96875 44.3594 7.96875C43.9427 7.96875 43.5729 8.08333 43.25 8.3125C42.9375 8.53125 42.6667 8.8125 42.4375 9.15625C42.2083 9.48958 42.0208 9.85417 41.875 10.25C41.7292 10.6458 41.6198 11.0104 41.5469 11.3438L46.1719 10.9062V10.5625ZM72.8438 16.0938C72.8438 17.2708 72.8281 18.4375 72.7969 19.5938C72.776 20.7396 72.7396 21.8958 72.6875 23.0625L63.6875 22.9062C64 21.0625 64.2708 19.224 64.5 17.3906C64.7292 15.5469 64.8438 13.6875 64.8438 11.8125C64.8438 11.6771 64.8385 11.4583 64.8281 11.1562C64.8177 10.8542 64.7969 10.5156 64.7656 10.1406C64.7344 9.75521 64.6875 9.36458 64.625 8.96875C64.5729 8.5625 64.4948 8.19271 64.3906 7.85938C64.2969 7.52604 64.1771 7.25521 64.0312 7.04688C63.8958 6.82812 63.7292 6.71875 63.5312 6.71875C63.1771 6.71875 62.875 6.82292 62.625 7.03125C62.3854 7.23958 62.1823 7.51042 62.0156 7.84375C61.8594 8.16667 61.7344 8.53125 61.6406 8.9375C61.5469 9.34375 61.474 9.75 61.4219 10.1562C61.3802 10.5625 61.349 10.9479 61.3281 11.3125C61.3177 11.6667 61.3125 11.9583 61.3125 12.1875C61.2604 14.0312 61.2188 15.8646 61.1875 17.6875C61.1562 19.5 61.1146 21.3333 61.0625 23.1875L53.0938 23.5312C53.3021 19.8542 53.5 16.1979 53.6875 12.5625C53.8854 8.92708 54.0417 5.27083 54.1562 1.59375L61.5312 1.21875L61.4688 3.71875C61.7604 3.36458 62.0729 3.03125 62.4062 2.71875C62.75 2.40625 63.1146 2.14062 63.5 1.92188C63.8854 1.69271 64.2917 1.51562 64.7188 1.39062C65.1562 1.25521 65.6146 1.1875 66.0938 1.1875C66.9792 1.1875 67.7552 1.33333 68.4219 1.625C69.0885 1.91667 69.6615 2.3125 70.1406 2.8125C70.6198 3.3125 71.0208 3.90625 71.3438 4.59375C71.6667 5.27083 71.9271 5.99479 72.125 6.76562C72.3229 7.53646 72.474 8.34375 72.5781 9.1875C72.6823 10.0208 72.75 10.8438 72.7812 11.6562C72.8229 12.4688 72.8438 13.2552 72.8438 14.0156C72.8438 14.776 72.8438 15.4688 72.8438 16.0938ZM90.875 1.96875L90.7188 8.59375L86.0625 8.78125L85.5 23.2812L78.9062 23.625L78.3125 9.125L73.6562 9.375L73.8438 2L90.875 1.96875ZM107.766 15.6875C107.766 17.1146 107.516 18.3646 107.016 19.4375C106.526 20.5 105.849 21.3854 104.984 22.0938C104.13 22.8021 103.125 23.3333 101.969 23.6875C100.823 24.0417 99.5885 24.2188 98.2656 24.2188C97.7552 24.2188 97.1927 24.151 96.5781 24.0156C95.974 23.8802 95.3594 23.7135 94.7344 23.5156C94.1094 23.3073 93.5052 23.0885 92.9219 22.8594C92.349 22.6198 91.8385 22.3958 91.3906 22.1875L92.0781 15.75C92.9635 16.2812 93.9427 16.6875 95.0156 16.9688C96.099 17.2396 97.1615 17.375 98.2031 17.375C98.401 17.375 98.6406 17.3698 98.9219 17.3594C99.2031 17.3385 99.4688 17.2917 99.7188 17.2188C99.9792 17.1354 100.198 17.0156 100.375 16.8594C100.552 16.7031 100.641 16.4792 100.641 16.1875C100.641 15.9896 100.578 15.8229 100.453 15.6875C100.328 15.5417 100.167 15.4271 99.9688 15.3438C99.7708 15.25 99.5469 15.1823 99.2969 15.1406C99.0469 15.0885 98.8021 15.0521 98.5625 15.0312C98.3229 15.0104 98.099 15 97.8906 15C97.6823 15 97.5156 15 97.3906 15C96.4948 15 95.6771 14.8438 94.9375 14.5312C94.2083 14.2188 93.5781 13.7865 93.0469 13.2344C92.526 12.6719 92.1198 12.0104 91.8281 11.25C91.5365 10.4792 91.3906 9.64583 91.3906 8.75C91.3906 7.52083 91.6354 6.42188 92.125 5.45312C92.625 4.47396 93.2865 3.64583 94.1094 2.96875C94.9427 2.28125 95.8958 1.75521 96.9688 1.39062C98.0417 1.02604 99.151 0.84375 100.297 0.84375C100.807 0.84375 101.333 0.864583 101.875 0.90625C102.417 0.9375 102.953 1 103.484 1.09375C104.026 1.1875 104.552 1.30729 105.062 1.45312C105.573 1.59896 106.057 1.78125 106.516 2L105.922 8.34375C105.214 8.10417 104.469 7.90625 103.688 7.75C102.917 7.58333 102.161 7.5 101.422 7.5C101.286 7.5 101.109 7.50521 100.891 7.51562C100.682 7.51562 100.458 7.53125 100.219 7.5625C99.9896 7.58333 99.7552 7.61979 99.5156 7.67188C99.276 7.72396 99.0625 7.79688 98.875 7.89062C98.6875 7.97396 98.5365 8.08854 98.4219 8.23438C98.3073 8.38021 98.2552 8.55208 98.2656 8.75C98.276 8.97917 98.3594 9.16667 98.5156 9.3125C98.6823 9.44792 98.8906 9.55729 99.1406 9.64062C99.401 9.71354 99.6823 9.76562 99.9844 9.79688C100.297 9.82812 100.604 9.84896 100.906 9.85938C101.208 9.85938 101.49 9.85938 101.75 9.85938C102.01 9.84896 102.224 9.85417 102.391 9.875C103.224 9.92708 103.974 10.1042 104.641 10.4062C105.307 10.7083 105.87 11.1094 106.328 11.6094C106.797 12.1094 107.151 12.7083 107.391 13.4062C107.641 14.0938 107.766 14.8542 107.766 15.6875ZM127.75 2.84375L120.406 14.8438L120.625 23.6875H112.594L112.781 14.9062L107.062 3.3125L115.031 2.3125L117.531 9.0625L120.25 2.3125L127.75 2.84375ZM147.031 16.0938C147.031 17.2708 147.016 18.4375 146.984 19.5938C146.964 20.7396 146.927 21.8958 146.875 23.0625L137.875 22.9062C138.188 21.0625 138.458 19.224 138.688 17.3906C138.917 15.5469 139.031 13.6875 139.031 11.8125C139.031 11.6771 139.026 11.4583 139.016 11.1562C139.005 10.8542 138.984 10.5156 138.953 10.1406C138.922 9.75521 138.875 9.36458 138.812 8.96875C138.76 8.5625 138.682 8.19271 138.578 7.85938C138.484 7.52604 138.365 7.25521 138.219 7.04688C138.083 6.82812 137.917 6.71875 137.719 6.71875C137.365 6.71875 137.062 6.82292 136.812 7.03125C136.573 7.23958 136.37 7.51042 136.203 7.84375C136.047 8.16667 135.922 8.53125 135.828 8.9375C135.734 9.34375 135.661 9.75 135.609 10.1562C135.568 10.5625 135.536 10.9479 135.516 11.3125C135.505 11.6667 135.5 11.9583 135.5 12.1875C135.448 14.0312 135.406 15.8646 135.375 17.6875C135.344 19.5 135.302 21.3333 135.25 23.1875L127.281 23.5312C127.49 19.8542 127.688 16.1979 127.875 12.5625C128.073 8.92708 128.229 5.27083 128.344 1.59375L135.719 1.21875L135.656 3.71875C135.948 3.36458 136.26 3.03125 136.594 2.71875C136.938 2.40625 137.302 2.14062 137.688 1.92188C138.073 1.69271 138.479 1.51562 138.906 1.39062C139.344 1.25521 139.802 1.1875 140.281 1.1875C141.167 1.1875 141.943 1.33333 142.609 1.625C143.276 1.91667 143.849 2.3125 144.328 2.8125C144.807 3.3125 145.208 3.90625 145.531 4.59375C145.854 5.27083 146.115 5.99479 146.312 6.76562C146.51 7.53646 146.661 8.34375 146.766 9.1875C146.87 10.0208 146.938 10.8438 146.969 11.6562C147.01 12.4688 147.031 13.2552 147.031 14.0156C147.031 14.776 147.031 15.4688 147.031 16.0938ZM163.422 2.65625L162.859 9.25C162.557 9.16667 162.26 9.10938 161.969 9.07812C161.677 9.04688 161.38 9.03125 161.078 9.03125C160.339 9.03125 159.63 9.125 158.953 9.3125C158.286 9.5 157.693 9.78646 157.172 10.1719C156.661 10.5573 156.25 11.0469 155.938 11.6406C155.635 12.224 155.484 12.9167 155.484 13.7188C155.484 14.3021 155.568 14.8125 155.734 15.25C155.911 15.6771 156.156 16.0365 156.469 16.3281C156.792 16.6094 157.177 16.8229 157.625 16.9688C158.083 17.1146 158.589 17.1875 159.141 17.1875C159.526 17.1875 159.922 17.151 160.328 17.0781C160.734 16.9948 161.141 16.8854 161.547 16.75C161.953 16.6146 162.344 16.4583 162.719 16.2812C163.094 16.1042 163.443 15.9167 163.766 15.7188L163.516 23.0625C163.109 23.2708 162.672 23.4583 162.203 23.625C161.734 23.7812 161.25 23.9167 160.75 24.0312C160.26 24.1562 159.766 24.25 159.266 24.3125C158.776 24.375 158.307 24.4062 157.859 24.4062C156.38 24.4062 155.031 24.1302 153.812 23.5781C152.604 23.026 151.562 22.276 150.688 21.3281C149.823 20.3698 149.151 19.2604 148.672 18C148.193 16.7396 147.953 15.3958 147.953 13.9688C147.953 12.2604 148.193 10.6667 148.672 9.1875C149.161 7.70833 149.875 6.42708 150.812 5.34375C151.76 4.25 152.927 3.39583 154.312 2.78125C155.708 2.15625 157.307 1.84375 159.109 1.84375C159.828 1.84375 160.557 1.90104 161.297 2.01562C162.036 2.13021 162.745 2.34375 163.422 2.65625Z" fill="#262626"/>
</svg>
